<svg xmlns="http://www.w3.org/2000/svg" width="317.40157461394006" height="46.826771440682705" style="background: rgba(0, 0, 0, 0);" preserveAspectRatio="xMidYMid"><rect id="backgroundrect" width="100%" height="100%" x="0" y="0" fill="none" stroke="none" class="selected" style=""/><defs><filter id="editing-extrusion" x="-100%" y="-100%" width="300%" height="300%"><feFlood result="color1" flood-color="#cccccc"/><feConvolveMatrix order="4,4" divisor="1" kernelMatrix="1 0 0 0 0 1 0 0 0 0 1 0 0 0 0 1" in="SourceAlpha" result="extrude"/><feComposite in="color1" in2="extrude" result="comp-extrude" operator="in"/><feOffset dx="2" dy="2" in="comp-extrude" result="offset-extrude"/><feMerge><feMergeNode in="offset-extrude"/><feMergeNode in="SourceGraphic"/></feMerge></filter></defs><style>text {
  font-size: 64px;
  font-family: Arial Black;
  dominant-baseline: central;
  text-anchor: middle;
}</style><g class="currentLayer" style=""><title>Layer 1</title><g filter="url(#editing-extrusion)" id="svg_1" class=""><g id="svg_2"><path d="M20.791616210937505,22.421890296936027 L30.481616210937503,21.561890296936042 L30.481616210937503,21.561890296936042 Q27.0316162109375,29.14189029693604 27.0316162109375,37.93189029693603 L27.0316162109375,37.93189029693603 L27.0316162109375,37.93189029693603 Q25.731616210937503,38.84189029693603 23.831616210937497,38.84189029693603 L23.831616210937497,38.84189029693603 L23.831616210937497,38.84189029693603 Q21.941616210937497,38.84189029693603 20.741616210937508,37.95189029693603 L20.741616210937508,37.95189029693603 L20.741616210937508,37.95189029693603 Q19.541616210937505,37.06189029693604 19.301616210937496,36.15189029693603 L19.301616210937496,36.15189029693603 L19.301616210937496,36.15189029693603 Q18.101616210937493,37.40189029693603 16.151616210937505,38.12189029693603 L16.151616210937505,38.12189029693603 L16.151616210937505,38.12189029693603 Q14.211616210937507,38.84189029693603 12.151616210937505,38.84189029693603 L12.151616210937505,38.84189029693603 L12.151616210937505,38.84189029693603 Q10.081616210937497,38.84189029693603 8.2816162109375,38.17189029693604 L8.2816162109375,38.17189029693604 L8.2816162109375,38.17189029693604 Q6.481616210937503,37.50189029693604 5.091616210937502,36.01189029693603 L5.091616210937502,36.01189029693603 L5.091616210937502,36.01189029693603 Q2.021616210937495,32.741890296936035 2.021616210937495,26.551890296936037 L2.021616210937495,26.551890296936037 L2.021616210937495,26.551890296936037 Q2.021616210937495,16.95189029693603 7.1516162109375045,11.191890296936037 L7.1516162109375045,11.191890296936037 L7.1516162109375045,11.191890296936037 Q12.431616210937506,5.241890296936035 21.791616210937505,5.241890296936035 L21.791616210937505,5.241890296936035 L21.791616210937505,5.241890296936035 Q28.271616210937495,5.241890296936035 30.581616210937497,8.601890296936034 L30.581616210937497,8.601890296936034 L30.581616210937497,8.601890296936034 Q31.301616210937496,9.661890296936036 31.301616210937496,10.931890296936032 L31.301616210937496,10.931890296936032 L31.301616210937496,10.931890296936032 Q31.301616210937496,12.201890296936028 30.7516162109375,13.28189029693604 L30.7516162109375,13.28189029693604 L30.7516162109375,13.28189029693604 Q30.191616210937497,14.36189029693604 29.331616210937497,15.221890296936039 L29.331616210937497,15.221890296936039 L29.331616210937497,15.221890296936039 Q27.271616210937495,17.14189029693604 24.721616210937498,17.14189029693604 L24.721616210937498,17.14189029693604 L24.721616210937498,17.14189029693604 Q23.711616210937507,17.14189029693604 22.7516162109375,16.811890296936042 L22.7516162109375,16.811890296936042 L22.7516162109375,16.811890296936042 Q22.9516162109375,15.37189029693603 22.9516162109375,13.691890296936037 L22.9516162109375,13.691890296936037 L22.9516162109375,13.691890296936037 Q22.9516162109375,12.01189029693603 22.831616210937497,11.241890296936035 L22.831616210937497,11.241890296936035 L22.831616210937497,11.241890296936035 Q22.711616210937507,10.471890296936039 22.4216162109375,9.851890296936034 L22.4216162109375,9.851890296936034 L22.4216162109375,9.851890296936034 Q21.791616210937505,8.551890296936037 20.431616210937506,8.551890296936037 L20.431616210937506,8.551890296936037 L20.431616210937506,8.551890296936037 Q19.0616162109375,8.551890296936037 17.551616210937496,10.021890296936036 L17.551616210937496,10.021890296936036 L17.551616210937496,10.021890296936036 Q16.0316162109375,11.48189029693603 14.831616210937497,13.881890296936035 L14.831616210937497,13.881890296936035 L14.831616210937497,13.881890296936035 Q12.191616210937497,19.26189029693603 12.191616210937497,25.741890296936035 L12.191616210937497,25.741890296936035 L12.191616210937497,25.741890296936035 Q12.191616210937497,28.711890296936033 13.351616210937493,30.821890296936033 L13.351616210937493,30.821890296936033 L13.351616210937493,30.821890296936033 Q14.591616210937502,33.131890296936035 16.801616210937496,33.131890296936035 L16.801616210937496,33.131890296936035 L16.801616210937496,33.131890296936035 Q17.571616210937492,33.131890296936035 18.271616210937495,32.741890296936035 L18.271616210937495,32.741890296936035 L18.271616210937495,32.741890296936035 Q18.961616210937507,32.36189029693604 19.2516162109375,32.07189029693603 L19.2516162109375,32.07189029693603 L20.791616210937505,22.421890296936027 zM47.861616210937484,24.39189029693604 L47.861616210937484,24.39189029693604 L47.861616210937484,24.39189029693604 Q49.5916162109375,21.321890296936033 49.5916162109375,18.20189029693603 L49.5916162109375,18.20189029693603 L49.5916162109375,18.20189029693603 Q49.5916162109375,16.14189029693604 48.10161621093749,16.14189029693604 L48.10161621093749,16.14189029693604 L48.10161621093749,16.14189029693604 Q46.951616210937516,16.14189029693604 45.7516162109375,18.101890296936034 L45.7516162109375,18.101890296936034 L45.7516162109375,18.101890296936034 Q44.5016162109375,20.071890296936033 44.111616210937484,22.62189029693603 L44.111616210937484,22.62189029693603 L41.6216162109375,37.881890296936035 L31.681616210937506,38.84189029693603 L36.58161621093751,13.401890296936031 L44.5016162109375,12.441890296936037 L43.631616210937494,17.29189029693603 L43.631616210937494,17.29189029693603 Q45.99161621093751,12.441890296936037 51.27161621093751,12.441890296936037 L51.27161621093751,12.441890296936037 L51.27161621093751,12.441890296936037 Q54.05161621093751,12.441890296936037 55.5616162109375,13.881890296936035 L55.5616162109375,13.881890296936035 L55.5616162109375,13.881890296936035 Q57.07161621093749,15.321890296936033 57.07161621093749,18.271890296936036 L57.07161621093749,18.271890296936036 L57.07161621093749,18.271890296936036 Q57.07161621093749,21.22189029693604 55.131616210937494,23.101890296936034 L55.131616210937494,23.101890296936034 L55.131616210937494,23.101890296936034 Q53.1916162109375,24.97189029693604 49.8716162109375,24.97189029693604 L49.8716162109375,24.97189029693604 L49.8716162109375,24.97189029693604 Q48.431616210937506,24.97189029693604 47.861616210937484,24.39189029693604 zM68.3116162109375,38.84189029693603 L68.3116162109375,38.84189029693603 L68.3116162109375,38.84189029693603 Q57.7516162109375,38.84189029693603 57.7516162109375,28.90189029693603 L57.7516162109375,28.90189029693603 L57.7516162109375,28.90189029693603 Q57.7516162109375,21.851890296936034 61.631616210937494,17.29189029693603 L61.631616210937494,17.29189029693603 L61.631616210937494,17.29189029693603 Q65.76161621093752,12.441890296936037 72.9116162109375,12.441890296936037 L72.9116162109375,12.441890296936037 L72.9116162109375,12.441890296936037 Q78.1016162109375,12.441890296936037 80.74161621093748,14.841890296936043 L80.74161621093748,14.841890296936043 L80.74161621093748,14.841890296936043 Q83.3816162109375,17.241890296936035 83.3816162109375,22.28189029693604 L83.3816162109375,22.28189029693604 L83.3816162109375,22.28189029693604 Q83.3816162109375,29.961890296936033 79.2516162109375,34.42189029693604 L79.2516162109375,34.42189029693604 L79.2516162109375,34.42189029693604 Q75.2216162109375,38.84189029693603 68.3116162109375,38.84189029693603 zM69.55161621093748,17.961890296936033 L69.55161621093748,17.961890296936033 L69.55161621093748,17.961890296936033 Q68.98161621093749,19.26189029693603 68.52161621093751,21.20189029693603 L68.52161621093751,21.20189029693603 L68.52161621093751,21.20189029693603 Q68.07161621093752,23.14189029693604 67.49161621093748,26.22189029693604 L67.49161621093748,26.22189029693604 L67.49161621093748,26.22189029693604 Q66.9116162109375,29.29189029693603 66.9116162109375,33.08189029693604 L66.9116162109375,33.08189029693604 L66.9116162109375,33.08189029693604 Q66.9116162109375,34.33189029693604 67.32161621093752,35.14189029693604 L67.32161621093752,35.14189029693604 L67.32161621093752,35.14189029693604 Q67.73161621093749,35.96189029693603 68.83161621093751,35.96189029693603 L68.83161621093751,35.96189029693603 L68.83161621093751,35.96189029693603 Q69.9416162109375,35.96189029693603 70.6316162109375,35.43189029693603 L70.6316162109375,35.43189029693603 L70.6316162109375,35.43189029693603 Q71.33161621093751,34.90189029693603 71.86161621093748,33.661890296936036 L71.86161621093748,33.661890296936036 L71.86161621093748,33.661890296936036 Q72.82161621093752,31.45189029693603 73.5916162109375,27.341890296936043 L73.5916162109375,27.341890296936043 L73.5916162109375,27.341890296936043 Q74.3516162109375,23.241890296936035 74.4316162109375,21.461890296936033 L74.4316162109375,21.461890296936033 L74.4316162109375,21.461890296936033 Q74.5016162109375,19.691890296936037 74.5016162109375,18.37189029693603 L74.5016162109375,18.37189029693603 L74.5016162109375,18.37189029693603 Q74.5016162109375,17.051890296936037 74.11161621093748,16.181890296936032 L74.11161621093748,16.181890296936032 L74.11161621093748,16.181890296936032 Q73.73161621093749,15.321890296936033 72.6516162109375,15.321890296936033 L72.6516162109375,15.321890296936033 L72.6516162109375,15.321890296936033 Q71.57161621093752,15.321890296936033 70.8516162109375,15.991890296936035 L70.8516162109375,15.991890296936035 L70.8516162109375,15.991890296936035 Q70.1316162109375,16.661890296936036 69.55161621093748,17.961890296936033 zM86.98161621093749,33.08189029693604 L86.98161621093749,33.08189029693604 L86.98161621093749,33.08189029693604 Q86.98161621093749,31.78189029693604 87.6516162109375,28.521890296936036 L87.6516162109375,28.521890296936036 L90.1916162109375,15.561890296936042 L87.36161621093748,15.561890296936042 L87.55161621093748,14.12189029693603 L87.55161621093748,14.12189029693603 Q93.3116162109375,12.39189029693604 98.8816162109375,8.171890296936034 L98.8816162109375,8.171890296936034 L101.1916162109375,8.171890296936034 L100.0316162109375,13.401890296936031 L103.7816162109375,13.401890296936031 L103.3516162109375,15.561890296936042 L99.6516162109375,15.561890296936042 L97.20161621093752,28.521890296936036 L97.20161621093752,28.521890296936036 Q96.58161621093751,31.50189029693604 96.58161621093751,32.50189029693604 L96.58161621093751,32.50189029693604 L96.58161621093751,32.50189029693604 Q96.58161621093751,34.81189029693604 98.5916162109375,35.29189029693603 L98.5916162109375,35.29189029693603 L98.5916162109375,35.29189029693603 Q98.11161621093748,36.92189029693604 96.39161621093751,37.881890296936035 L96.39161621093751,37.881890296936035 L96.39161621093751,37.881890296936035 Q94.6616162109375,38.84189029693603 92.2116162109375,38.84189029693603 L92.2116162109375,38.84189029693603 L92.2116162109375,38.84189029693603 Q89.76161621093752,38.84189029693603 88.3716162109375,37.30189029693604 L88.3716162109375,37.30189029693604 L88.3716162109375,37.30189029693604 Q86.98161621093749,35.771890296936036 86.98161621093749,33.08189029693604 zM127.6816162109375,32.55189029693604 L127.6816162109375,32.55189029693604 L127.6816162109375,32.55189029693604 Q127.6816162109375,34.661890296936036 129.8416162109375,35.29189029693603 L129.8416162109375,35.29189029693603 L129.8416162109375,35.29189029693603 Q129.3116162109375,37.06189029693604 127.2516162109375,38.021890296936036 L127.2516162109375,38.021890296936036 L127.2516162109375,38.021890296936036 Q125.52161621093751,38.84189029693603 123.6316162109375,38.84189029693603 L123.6316162109375,38.84189029693603 L123.6316162109375,38.84189029693603 Q121.73161621093749,38.84189029693603 120.7516162109375,38.34189029693603 L120.7516162109375,38.34189029693603 L120.7516162109375,38.34189029693603 Q119.76161621093752,37.83189029693604 119.23161621093749,37.021890296936036 L119.23161621093749,37.021890296936036 L119.23161621093749,37.021890296936036 Q118.3716162109375,35.771890296936036 118.3716162109375,33.42189029693604 L118.3716162109375,33.42189029693604 L118.3716162109375,33.42189029693604 Q118.3716162109375,32.021890296936036 119.14161621093751,28.181890296936032 L119.14161621093751,28.181890296936032 L119.8116162109375,24.54189029693603 L119.8116162109375,24.54189029693603 Q120.6316162109375,20.36189029693604 120.6316162109375,18.821890296936033 L120.6316162109375,18.821890296936033 L120.6316162109375,18.821890296936033 Q120.6316162109375,16.14189029693604 119.14161621093751,16.14189029693604 L119.14161621093751,16.14189029693604 L119.14161621093751,16.14189029693604 Q117.27161621093751,16.14189029693604 116.07161621093752,18.87189029693603 L116.07161621093752,18.87189029693603 L116.07161621093752,18.87189029693603 Q115.5916162109375,19.931890296936032 115.2516162109375,21.51189029693603 L115.2516162109375,21.51189029693603 L111.99161621093748,37.881890296936035 L102.3416162109375,38.84189029693603 L109.11161621093748,4.281890296936034 L118.7516162109375,3.321890296936033 L118.3716162109375,5.241890296936035 L118.3716162109375,5.241890296936035 Q117.0316162109375,12.631890296936035 115.8716162109375,15.131890296936035 L115.8716162109375,15.131890296936035 L115.8716162109375,15.131890296936035 Q118.5616162109375,12.441890296936037 123.51161621093752,12.441890296936037 L123.51161621093752,12.441890296936037 L123.51161621093752,12.441890296936037 Q128.7416162109375,12.441890296936037 129.7016162109375,15.901890296936031 L129.7016162109375,15.901890296936031 L129.7016162109375,15.901890296936031 Q130.0316162109375,17.00189029693604 130.0316162109375,17.961890296936033 L130.0316162109375,17.961890296936033 L130.0316162109375,17.961890296936033 Q130.0316162109375,18.921890296936027 129.9616162109375,19.661890296936036 L129.9616162109375,19.661890296936036 L129.9616162109375,19.661890296936036 Q129.8916162109375,20.411890296936036 129.6516162109375,21.75189029693604 L129.6516162109375,21.75189029693604 L129.0316162109375,25.211890296936033 L127.92161621093749,30.631890296936035 L127.92161621093749,30.631890296936035 Q127.6816162109375,31.741890296936035 127.6816162109375,32.55189029693604 zM153.1716162109375,29.771890296936036 L153.1716162109375,29.771890296936036 L153.1716162109375,29.771890296936036 Q154.3716162109375,30.581890296936038 154.3716162109375,32.381890296936035 L154.3716162109375,32.381890296936035 L154.3716162109375,32.381890296936035 Q154.3716162109375,34.18189029693603 153.4616162109375,35.34189029693603 L153.4616162109375,35.34189029693603 L153.4616162109375,35.34189029693603 Q152.5516162109375,36.491890296936035 151.0616162109375,37.26189029693603 L151.0616162109375,37.26189029693603 L151.0616162109375,37.26189029693603 Q147.9916162109375,38.84189029693603 144.6716162109375,38.84189029693603 L144.6716162109375,38.84189029693603 L144.6716162109375,38.84189029693603 Q141.3616162109375,38.84189029693603 139.4216162109375,38.12189029693603 L139.4216162109375,38.12189029693603 L139.4216162109375,38.12189029693603 Q137.4716162109375,37.40189029693603 136.1816162109375,36.06189029693604 L136.1816162109375,36.06189029693604 L136.1816162109375,36.06189029693604 Q133.6316162109375,33.51189029693603 133.6316162109375,28.86189029693604 L133.6316162109375,28.86189029693604 L133.6316162109375,28.86189029693604 Q133.6316162109375,21.61189029693604 137.5716162109375,17.191890296936037 L137.5716162109375,17.191890296936037 L137.5716162109375,17.191890296936037 Q141.7916162109375,12.441890296936037 149.1416162109375,12.441890296936037 L149.1416162109375,12.441890296936037 L149.1416162109375,12.441890296936037 Q153.7016162109375,12.441890296936037 155.9516162109375,14.36189029693604 L155.9516162109375,14.36189029693604 L155.9516162109375,14.36189029693604 Q157.6316162109375,15.801890296936037 157.6316162109375,18.15189029693603 L157.6316162109375,18.15189029693603 L157.6316162109375,18.15189029693603 Q157.6316162109375,26.601890296936034 143.0416162109375,26.601890296936034 L143.0416162109375,26.601890296936034 L143.0416162109375,26.601890296936034 Q142.8516162109375,27.851890296936034 142.8516162109375,28.90189029693603 L142.8516162109375,28.90189029693603 L142.8516162109375,28.90189029693603 Q142.8516162109375,31.11189029693604 143.8316162109375,31.95189029693603 L143.8316162109375,31.95189029693603 L143.8316162109375,31.95189029693603 Q144.8216162109375,32.79189029693603 146.6416162109375,32.79189029693603 L146.6416162109375,32.79189029693603 L146.6416162109375,32.79189029693603 Q148.4716162109375,32.79189029693603 150.4116162109375,31.95189029693603 L150.4116162109375,31.95189029693603 L150.4116162109375,31.95189029693603 Q152.3516162109375,31.11189029693604 153.1716162109375,29.771890296936036 zM143.3816162109375,24.54189029693603 L143.3816162109375,24.54189029693603 L143.3816162109375,24.54189029693603 Q146.7916162109375,24.54189029693603 148.7516162109375,22.421890296936027 L148.7516162109375,22.421890296936027 L148.7516162109375,22.421890296936027 Q150.7216162109375,20.411890296936036 150.7216162109375,17.191890296936037 L150.7216162109375,17.191890296936037 L150.7216162109375,17.191890296936037 Q150.7216162109375,16.091890296936043 150.3116162109375,15.491890296936035 L150.3116162109375,15.491890296936035 L150.3116162109375,15.491890296936035 Q149.9116162109375,14.89189029693604 149.0916162109375,14.89189029693604 L149.0916162109375,14.89189029693604 L149.0916162109375,14.89189029693604 Q148.2716162109375,14.89189029693604 147.5816162109375,15.201890296936028 L147.5816162109375,15.201890296936028 L147.5816162109375,15.201890296936028 Q146.8816162109375,15.51189029693603 146.1616162109375,16.571890296936033 L146.1616162109375,16.571890296936033 L146.1616162109375,16.571890296936033 Q144.3916162109375,18.97189029693604 143.3816162109375,24.54189029693603 zM179.57161621093746,38.84189029693603 L179.57161621093746,38.84189029693603 L179.57161621093746,38.84189029693603 Q173.76161621093752,38.84189029693603 173.76161621093752,34.33189029693604 L173.76161621093752,34.33189029693604 L173.76161621093752,34.33189029693604 Q173.81161621093747,33.08189029693604 174.19161621093747,30.97189029693604 L174.19161621093747,30.97189029693604 L175.06161621093747,26.551890296936037 L175.06161621093747,26.551890296936037 Q176.3516162109375,20.311890296936042 176.3516162109375,18.921890296936027 L176.3516162109375,18.921890296936027 L176.3516162109375,18.921890296936027 Q176.3516162109375,16.14189029693604 174.7216162109375,16.14189029693604 L174.7216162109375,16.14189029693604 L174.7216162109375,16.14189029693604 Q171.99161621093754,16.14189029693604 170.55161621093748,23.29189029693603 L170.55161621093748,23.29189029693603 L167.7116162109375,37.881890296936035 L158.0716162109375,38.84189029693603 L163.0616162109375,13.351890296936034 L170.93161621093748,12.441890296936037 L170.1616162109375,17.14189029693604 L170.1616162109375,17.14189029693604 Q172.4216162109375,12.441890296936037 179.3316162109375,12.441890296936037 L179.3316162109375,12.441890296936037 L179.3316162109375,12.441890296936037 Q182.69161621093747,12.441890296936037 184.11161621093754,13.86189029693604 L184.11161621093754,13.86189029693604 L184.11161621093754,13.86189029693604 Q185.5216162109375,15.271890296936036 185.5216162109375,18.441890296936037 L185.5216162109375,18.441890296936037 L185.5216162109375,18.441890296936037 Q185.5216162109375,21.421890296936027 183.99161621093754,28.381890296936035 L183.99161621093754,28.381890296936035 L183.99161621093754,28.381890296936035 Q183.2716162109375,31.50189029693604 183.2716162109375,32.67189029693604 L183.2716162109375,32.67189029693604 L183.2716162109375,32.67189029693604 Q183.2716162109375,33.851890296936034 183.9116162109375,34.521890296936036 L183.9116162109375,34.521890296936036 L183.9116162109375,34.521890296936036 Q184.56161621093747,35.19189029693604 185.5216162109375,35.29189029693603 L185.5216162109375,35.29189029693603 L185.5216162109375,35.29189029693603 Q185.0416162109375,36.92189029693604 183.3916162109375,37.881890296936035 L183.3916162109375,37.881890296936035 L183.3916162109375,37.881890296936035 Q181.7316162109375,38.84189029693603 179.57161621093746,38.84189029693603 zM204.4816162109375,12.441890296936037 L204.4816162109375,12.441890296936037 L204.4816162109375,12.441890296936037 Q206.2116162109375,12.441890296936037 207.55161621093748,12.821890296936033 L207.55161621093748,12.821890296936033 L207.55161621093748,12.821890296936033 Q207.6016162109375,12.631890296936035 207.70161621093746,12.101890296936034 L207.70161621093746,12.101890296936034 L207.94161621093747,10.62189029693603 L207.94161621093747,10.62189029693603 Q208.13161621093752,9.661890296936036 208.4216162109375,8.071890296936033 L208.4216162109375,8.071890296936033 L209.19161621093747,4.281890296936034 L218.74161621093754,3.321890296936033 L213.4116162109375,31.161890296936036 L213.4116162109375,31.161890296936036 Q213.36161621093754,31.45189029693603 213.36161621093754,31.931890296936032 L213.36161621093754,31.931890296936032 L213.36161621093754,32.70189029693603 L213.36161621093754,32.70189029693603 Q213.36161621093754,33.75189029693604 213.8916162109375,34.54189029693603 L213.8916162109375,34.54189029693603 L213.8916162109375,34.54189029693603 Q214.4216162109375,35.34189029693603 215.2816162109375,35.34189029693603 L215.2816162109375,35.34189029693603 L215.2816162109375,35.34189029693603 Q214.32161621093746,37.59189029693603 211.3916162109375,38.55189029693604 L211.3916162109375,38.55189029693604 L211.3916162109375,38.55189029693604 Q210.3916162109375,38.84189029693603 208.9716162109375,38.84189029693603 L208.9716162109375,38.84189029693603 L208.9716162109375,38.84189029693603 Q207.55161621093748,38.84189029693603 206.26161621093752,38.101890296936034 L206.26161621093752,38.101890296936034 L206.26161621093752,38.101890296936034 Q204.9616162109375,37.351890296936034 204.5816162109375,36.101890296936034 L204.5816162109375,36.101890296936034 L204.5816162109375,36.101890296936034 Q203.81161621093747,37.351890296936034 202.2716162109375,38.101890296936034 L202.2716162109375,38.101890296936034 L202.2716162109375,38.101890296936034 Q200.74161621093754,38.84189029693603 198.51161621093752,38.84189029693603 L198.51161621093752,38.84189029693603 L198.51161621093752,38.84189029693603 Q196.2716162109375,38.84189029693603 194.43161621093748,38.26189029693603 L194.43161621093748,38.26189029693603 L194.43161621093748,38.26189029693603 Q192.5816162109375,37.69189029693604 191.43161621093748,36.44189029693604 L191.43161621093748,36.44189029693604 L191.43161621093748,36.44189029693604 Q189.31161621093747,33.991890296936035 189.31161621093747,28.421890296936027 L189.31161621093747,28.421890296936027 L189.31161621093747,28.421890296936027 Q189.31161621093747,21.22189029693604 193.5416162109375,16.86189029693604 L193.5416162109375,16.86189029693604 L193.5416162109375,16.86189029693604 Q197.76161621093752,12.441890296936037 204.4816162109375,12.441890296936037 zM204.1516162109375,15.321890296936033 L204.1516162109375,15.321890296936033 L204.1516162109375,15.321890296936033 Q202.37161621093753,15.321890296936033 201.4116162109375,17.241890296936035 L201.4116162109375,17.241890296936035 L201.4116162109375,17.241890296936035 Q200.45161621093746,19.161890296936036 199.4716162109375,23.911890296936036 L199.4716162109375,23.911890296936036 L199.4716162109375,23.911890296936036 Q198.4816162109375,28.661890296936036 198.4816162109375,32.94189029693604 L198.4816162109375,32.94189029693604 L198.4816162109375,32.94189029693604 Q198.4816162109375,35.86189029693604 200.2116162109375,35.86189029693604 L200.2116162109375,35.86189029693604 L200.2116162109375,35.86189029693604 Q201.75161621093753,35.86189029693604 202.8316162109375,34.33189029693604 L202.8316162109375,34.33189029693604 L202.8316162109375,34.33189029693604 Q203.9116162109375,32.79189029693603 204.3416162109375,30.25189029693604 L204.3416162109375,30.25189029693604 L206.93161621093748,16.181890296936032 L206.93161621093748,16.181890296936032 Q205.9216162109375,15.321890296936033 204.1516162109375,15.321890296936033 zM230.88161621093752,35.241890296936035 L230.88161621093752,35.241890296936035 L230.88161621093752,35.241890296936035 Q229.3916162109375,38.84189029693603 224.6416162109375,38.84189029693603 L224.6416162109375,38.84189029693603 L224.6416162109375,38.84189029693603 Q222.19161621093747,38.84189029693603 220.6616162109375,37.161890296936036 L220.6616162109375,37.161890296936036 L220.6616162109375,37.161890296936036 Q219.36161621093754,35.67189029693604 219.36161621093754,34.18189029693603 L219.36161621093754,34.18189029693603 L219.36161621093754,34.18189029693603 Q219.36161621093754,30.301890296936037 221.1416162109375,22.711890296936033 L221.1416162109375,22.711890296936033 L222.9116162109375,13.401890296936031 L232.6616162109375,12.441890296936037 L229.7316162109375,27.61189029693604 L229.7316162109375,27.61189029693604 Q228.9116162109375,31.161890296936036 228.9116162109375,32.411890296936036 L228.9116162109375,32.411890296936036 L228.9116162109375,32.411890296936036 Q228.9116162109375,35.14189029693604 230.88161621093752,35.241890296936035 zM223.7816162109375,6.731890296936037 L223.7816162109375,6.731890296936037 L223.7816162109375,6.731890296936037 Q223.7816162109375,4.861890296936032 225.3416162109375,3.851890296936034 L225.3416162109375,3.851890296936034 L225.3416162109375,3.851890296936034 Q226.9016162109375,2.841890296936036 229.1516162109375,2.841890296936036 L229.1516162109375,2.841890296936036 L229.1516162109375,2.841890296936036 Q231.4116162109375,2.841890296936036 232.7816162109375,3.851890296936034 L232.7816162109375,3.851890296936034 L232.7816162109375,3.851890296936034 Q234.1516162109375,4.861890296936032 234.1516162109375,6.731890296936037 L234.1516162109375,6.731890296936037 L234.1516162109375,6.731890296936037 Q234.1516162109375,8.601890296936034 232.63161621093752,9.561890296936042 L232.63161621093752,9.561890296936042 L232.63161621093752,9.561890296936042 Q231.12161621093753,10.521890296936036 228.87161621093753,10.521890296936036 L228.87161621093753,10.521890296936036 L228.87161621093753,10.521890296936036 Q226.61161621093754,10.521890296936036 225.19161621093747,9.561890296936042 L225.19161621093747,9.561890296936042 L225.19161621093747,9.561890296936042 Q223.7816162109375,8.601890296936034 223.7816162109375,6.731890296936037 zM254.4016162109375,29.771890296936036 L254.4016162109375,29.771890296936036 L254.4016162109375,29.771890296936036 Q255.6016162109375,30.581890296936038 255.6016162109375,32.381890296936035 L255.6016162109375,32.381890296936035 L255.6016162109375,32.381890296936035 Q255.6016162109375,34.18189029693603 254.69161621093747,35.34189029693603 L254.69161621093747,35.34189029693603 L254.69161621093747,35.34189029693603 Q253.7816162109375,36.491890296936035 252.2916162109375,37.26189029693603 L252.2916162109375,37.26189029693603 L252.2916162109375,37.26189029693603 Q249.2216162109375,38.84189029693603 245.9116162109375,38.84189029693603 L245.9116162109375,38.84189029693603 L245.9116162109375,38.84189029693603 Q242.5916162109375,38.84189029693603 240.6516162109375,38.12189029693603 L240.6516162109375,38.12189029693603 L240.6516162109375,38.12189029693603 Q238.7116162109375,37.40189029693603 237.4116162109375,36.06189029693604 L237.4116162109375,36.06189029693604 L237.4116162109375,36.06189029693604 Q234.87161621093753,33.51189029693603 234.87161621093753,28.86189029693604 L234.87161621093753,28.86189029693604 L234.87161621093753,28.86189029693604 Q234.87161621093753,21.61189029693604 238.80161621093748,17.191890296936037 L238.80161621093748,17.191890296936037 L238.80161621093748,17.191890296936037 Q243.0316162109375,12.441890296936037 250.37161621093753,12.441890296936037 L250.37161621093753,12.441890296936037 L250.37161621093753,12.441890296936037 Q254.93161621093748,12.441890296936037 257.1916162109375,14.36189029693604 L257.1916162109375,14.36189029693604 L257.1916162109375,14.36189029693604 Q258.8716162109375,15.801890296936037 258.8716162109375,18.15189029693603 L258.8716162109375,18.15189029693603 L258.8716162109375,18.15189029693603 Q258.8716162109375,26.601890296936034 244.2716162109375,26.601890296936034 L244.2716162109375,26.601890296936034 L244.2716162109375,26.601890296936034 Q244.0816162109375,27.851890296936034 244.0816162109375,28.90189029693603 L244.0816162109375,28.90189029693603 L244.0816162109375,28.90189029693603 Q244.0816162109375,31.11189029693604 245.07161621093746,31.95189029693603 L245.07161621093746,31.95189029693603 L245.07161621093746,31.95189029693603 Q246.05161621093748,32.79189029693603 247.87161621093753,32.79189029693603 L247.87161621093753,32.79189029693603 L247.87161621093753,32.79189029693603 Q249.70161621093746,32.79189029693603 251.6416162109375,31.95189029693603 L251.6416162109375,31.95189029693603 L251.6416162109375,31.95189029693603 Q253.5916162109375,31.11189029693604 254.4016162109375,29.771890296936036 zM244.61161621093754,24.54189029693603 L244.61161621093754,24.54189029693603 L244.61161621093754,24.54189029693603 Q248.0216162109375,24.54189029693603 249.99161621093754,22.421890296936027 L249.99161621093754,22.421890296936027 L249.99161621093754,22.421890296936027 Q251.95161621093746,20.411890296936036 251.95161621093746,17.191890296936037 L251.95161621093746,17.191890296936037 L251.95161621093746,17.191890296936037 Q251.95161621093746,16.091890296936043 251.55161621093748,15.491890296936035 L251.55161621093748,15.491890296936035 L251.55161621093748,15.491890296936035 Q251.1416162109375,14.89189029693604 250.32161621093746,14.89189029693604 L250.32161621093746,14.89189029693604 L250.32161621093746,14.89189029693604 Q249.51161621093752,14.89189029693604 248.81161621093747,15.201890296936028 L248.81161621093747,15.201890296936028 L248.81161621093747,15.201890296936028 Q248.11161621093754,15.51189029693603 247.3916162109375,16.571890296936033 L247.3916162109375,16.571890296936033 L247.3916162109375,16.571890296936033 Q245.62161621093753,18.97189029693604 244.61161621093754,24.54189029693603 zM284.0716162109375,17.911890296936036 L284.0716162109375,17.911890296936036 L284.0716162109375,17.911890296936036 Q284.0716162109375,19.931890296936032 282.3916162109375,21.181890296936032 L282.3916162109375,21.181890296936032 L282.3916162109375,21.181890296936032 Q280.7116162109375,22.421890296936027 277.9716162109375,22.421890296936027 L277.9716162109375,22.421890296936027 L277.9716162109375,22.421890296936027 Q276.8216162109375,22.421890296936027 276.1516162109375,22.091890296936043 L276.1516162109375,22.091890296936043 L276.1516162109375,22.091890296936043 Q276.6716162109375,20.841890296936043 276.8416162109375,19.28189029693604 L276.8416162109375,19.28189029693604 L276.8416162109375,19.28189029693604 Q277.0116162109375,17.72189029693604 277.0116162109375,17.29189029693603 L277.0116162109375,17.29189029693603 L277.0116162109375,17.29189029693603 Q277.0116162109375,15.271890296936036 275.6216162109375,15.271890296936036 L275.6216162109375,15.271890296936036 L275.6216162109375,15.271890296936036 Q274.6616162109375,15.271890296936036 273.5816162109375,16.47189029693604 L273.5816162109375,16.47189029693604 L273.5816162109375,16.47189029693604 Q272.5016162109375,17.671890296936027 271.5916162109375,19.54189029693603 L271.5916162109375,19.54189029693603 L271.5916162109375,19.54189029693603 Q269.5716162109375,23.86189029693604 269.5716162109375,28.23189029693603 L269.5716162109375,28.23189029693603 L269.5716162109375,28.23189029693603 Q269.5716162109375,30.631890296936035 270.4816162109375,31.711890296936033 L270.4816162109375,31.711890296936033 L270.4816162109375,31.711890296936033 Q271.3916162109375,32.79189029693603 273.4116162109375,32.79189029693603 L273.4116162109375,32.79189029693603 L273.4116162109375,32.79189029693603 Q276.1916162109375,32.79189029693603 278.4016162109375,30.491890296936035 L278.4016162109375,30.491890296936035 L278.4016162109375,30.491890296936035 Q279.0316162109375,29.771890296936036 279.3616162109375,28.95189029693603 L279.3616162109375,28.95189029693603 L279.3616162109375,28.95189029693603 Q281.1916162109375,29.911890296936036 281.1916162109375,32.55189029693604 L281.1916162109375,32.55189029693604 L281.1916162109375,32.55189029693604 Q281.1916162109375,35.241890296936035 278.2116162109375,37.021890296936036 L278.2116162109375,37.021890296936036 L278.2116162109375,37.021890296936036 Q275.1416162109375,38.84189029693603 270.2416162109375,38.84189029693603 L270.2416162109375,38.84189029693603 L270.2416162109375,38.84189029693603 Q260.5016162109375,38.84189029693603 260.5016162109375,28.521890296936036 L260.5016162109375,28.521890296936036 L260.5016162109375,28.521890296936036 Q260.5016162109375,20.98189029693603 264.7716162109375,16.661890296936036 L264.7716162109375,16.661890296936036 L264.7716162109375,16.661890296936036 Q268.9016162109375,12.441890296936037 276.4816162109375,12.441890296936037 L276.4816162109375,12.441890296936037 L276.4816162109375,12.441890296936037 Q284.0716162109375,12.441890296936037 284.0716162109375,17.911890296936036 zM297.7516162109375,15.131890296936035 L297.7516162109375,15.131890296936035 L297.7516162109375,15.131890296936035 Q300.3416162109375,12.441890296936037 305.8116162109375,12.441890296936037 L305.8116162109375,12.441890296936037 L305.8116162109375,12.441890296936037 Q308.8316162109375,12.441890296936037 310.4916162109375,14.051890296936037 L310.4916162109375,14.051890296936037 L310.4916162109375,14.051890296936037 Q312.1516162109375,15.661890296936036 312.1516162109375,18.61189029693604 L312.1516162109375,18.61189029693604 L312.1516162109375,18.61189029693604 Q312.1516162109375,21.561890296936042 310.4916162109375,23.65189029693603 L310.4916162109375,23.65189029693603 L310.4916162109375,23.65189029693603 Q308.8316162109375,25.741890296936035 305.7616162109375,26.601890296936034 L305.7616162109375,26.601890296936034 L305.7616162109375,26.601890296936034 Q306.0016162109375,27.561890296936042 306.3416162109375,28.571890296936033 L306.3416162109375,28.571890296936033 L307.0116162109375,30.491890296936035 L307.0116162109375,30.491890296936035 Q307.9216162109375,32.94189029693604 308.6416162109375,33.80189029693604 L308.6416162109375,33.80189029693604 L308.6416162109375,33.80189029693604 Q309.3616162109375,34.661890296936036 310.3216162109375,34.95189029693603 L310.3216162109375,34.95189029693603 L310.3216162109375,34.95189029693603 Q309.7916162109375,36.92189029693604 307.8716162109375,37.98189029693603 L307.8716162109375,37.98189029693603 L307.8716162109375,37.98189029693603 Q306.3416162109375,38.84189029693603 304.2316162109375,38.84189029693603 L304.2316162109375,38.84189029693603 L304.2316162109375,38.84189029693603 Q298.0316162109375,38.84189029693603 297.2216162109375,29.29189029693603 L297.2216162109375,29.29189029693603 L297.2216162109375,29.29189029693603 Q297.0716162109375,27.941890296936037 297.0716162109375,26.601890296936034 L297.0716162109375,26.601890296936034 L297.0716162109375,26.601890296936034 Q299.4716162109375,25.931890296936032 301.1516162109375,23.671890296936027 L301.1516162109375,23.671890296936027 L301.1516162109375,23.671890296936027 Q302.8316162109375,21.421890296936027 302.8316162109375,18.78189029693604 L302.8316162109375,18.78189029693604 L302.8316162109375,18.78189029693604 Q302.8316162109375,16.14189029693604 300.9616162109375,16.14189029693604 L300.9616162109375,16.14189029693604 L300.9616162109375,16.14189029693604 Q299.6216162109375,16.14189029693604 298.5616162109375,17.62189029693603 L298.5616162109375,17.62189029693603 L298.5616162109375,17.62189029693603 Q297.5116162109375,19.11189029693604 297.0316162109375,21.661890296936036 L297.0316162109375,21.661890296936036 L293.8616162109375,37.881890296936035 L284.1616162109375,38.84189029693603 L290.8816162109375,4.281890296936034 L300.5316162109375,3.321890296936033 L299.4316162109375,9.03189029693604 L299.4316162109375,9.03189029693604 Q298.7116162109375,13.061890296936042 297.7516162109375,15.131890296936035 z" fill="#5390f9" id="svg_3"/></g></g></g></svg>